<?xml version="1.0" encoding="UTF-8" standalone="no"?>
<!-- Created with Inkscape (http://www.inkscape.org/) -->

<svg
   xmlns:dc="http://purl.org/dc/elements/1.1/"
   xmlns:cc="http://creativecommons.org/ns#"
   xmlns:rdf="http://www.w3.org/1999/02/22-rdf-syntax-ns#"
   xmlns:svg="http://www.w3.org/2000/svg"
   xmlns="http://www.w3.org/2000/svg"
   xmlns:sodipodi="http://sodipodi.sourceforge.net/DTD/sodipodi-0.dtd"
   xmlns:inkscape="http://www.inkscape.org/namespaces/inkscape"
   width="39.758579mm"
   height="196.54401mm"
   viewBox="0 0 39.758579 196.54401"
   version="1.1"
   id="svg973"
   inkscape:version="0.92.4 (5da689c313, 2019-01-14)"
   sodipodi:docname="audio-faceplate.svg">
  <defs
     id="defs967" />
  <sodipodi:namedview
     id="base"
     pagecolor="#ffffff"
     bordercolor="#666666"
     borderopacity="1.0"
     inkscape:pageopacity="0.0"
     inkscape:pageshadow="2"
     inkscape:zoom="0.99999999"
     inkscape:cx="128.31485"
     inkscape:cy="404.34843"
     inkscape:document-units="mm"
     inkscape:current-layer="layer2"
     showgrid="false"
     inkscape:window-width="2498"
     inkscape:window-height="1057"
     inkscape:window-x="54"
     inkscape:window-y="-8"
     inkscape:window-maximized="1"
     showguides="false"
     fit-margin-top="2"
     fit-margin-left="2"
     fit-margin-bottom="2"
     fit-margin-right="2" />
  <metadata
     id="metadata970">
    <rdf:RDF>
      <cc:Work
         rdf:about="">
        <dc:format>image/svg+xml</dc:format>
        <dc:type
           rdf:resource="http://purl.org/dc/dcmitype/StillImage" />
        <dc:title></dc:title>
      </cc:Work>
    </rdf:RDF>
  </metadata>
  <g
     inkscape:label="Vector"
     inkscape:groupmode="layer"
     id="layer1"
     style="display:inline"
     transform="translate(-65.205356,-8.7802234)">
    <path
       id="Sketch036_w0014-9-3"
       d="m 82.103064,84.521009 a 59.948911,59.948911 0 0 0 -9.05518,0 1.593925,1.593925 0 0 0 -1.47344,1.57078 150.06047,150.06047 0 0 0 0,3.50245 1.593925,1.593925 0 0 0 1.47344,1.57078 59.948911,59.948911 0 0 0 9.05518,0 1.593925,1.593925 0 0 0 1.47343,-1.57078 150.06047,150.06047 0 0 0 0,-3.50245 1.593925,1.593925 0 0 0 -1.47343,-1.57078"
       style="display:inline;fill:none;fill-rule:evenodd;stroke:#ff0000;stroke-width:0.00352778;stroke-miterlimit:4;stroke-dasharray:none;stroke-opacity:1"
       inkscape:connector-curvature="0" />
    <path
       id="Sketch036_w0014-9-4-4"
       d="m 82.103064,71.521008 a 59.948911,59.948911 0 0 0 -9.05518,0 1.593925,1.593925 0 0 0 -1.47344,1.570781 150.06047,150.06047 0 0 0 0,3.50245 1.593925,1.593925 0 0 0 1.47344,1.57078 59.948911,59.948911 0 0 0 9.05518,0 1.593925,1.593925 0 0 0 1.47343,-1.57078 150.06047,150.06047 0 0 0 0,-3.50245 1.593925,1.593925 0 0 0 -1.47343,-1.570781"
       style="display:inline;fill:none;fill-rule:evenodd;stroke:#ff0000;stroke-width:0.00352778;stroke-miterlimit:4;stroke-dasharray:none;stroke-opacity:1"
       inkscape:connector-curvature="0" />
    <path
       id="Sketch036_w0014-9-4-6-7"
       d="m 82.103064,58.521009 a 59.948911,59.948911 0 0 0 -9.05518,0 1.593925,1.593925 0 0 0 -1.47344,1.570781 150.06047,150.06047 0 0 0 0,3.502448 1.593925,1.593925 0 0 0 1.47344,1.570781 59.948911,59.948911 0 0 0 9.05518,0 1.593925,1.593925 0 0 0 1.47343,-1.570781 150.06047,150.06047 0 0 0 0,-3.502448 1.593925,1.593925 0 0 0 -1.47343,-1.570781"
       style="display:inline;fill:none;fill-rule:evenodd;stroke:#ff0000;stroke-width:0.00352778;stroke-miterlimit:4;stroke-dasharray:none;stroke-opacity:1"
       inkscape:connector-curvature="0" />
    <path
       id="Sketch036_w0014-9-4-6-0-88"
       d="m 96.809664,58.521009 a 59.948911,59.948911 0 0 0 -9.05518,0 1.593925,1.593925 0 0 0 -1.47344,1.570781 150.06047,150.06047 0 0 0 0,3.502448 1.593925,1.593925 0 0 0 1.47344,1.570781 59.948911,59.948911 0 0 0 9.05518,0 1.593925,1.593925 0 0 0 1.47343,-1.570781 150.06047,150.06047 0 0 0 0,-3.502448 1.593925,1.593925 0 0 0 -1.47343,-1.570781"
       style="display:inline;fill:none;fill-rule:evenodd;stroke:#ff0000;stroke-width:0.00352778;stroke-miterlimit:4;stroke-dasharray:none;stroke-opacity:1"
       inkscape:connector-curvature="0" />
    <path
       id="Sketch036_w0014-9-4-6-0-5-4"
       d="m 96.809664,71.521008 a 59.948911,59.948911 0 0 0 -9.05518,0 1.593925,1.593925 0 0 0 -1.47344,1.570781 150.06047,150.06047 0 0 0 0,3.50245 1.593925,1.593925 0 0 0 1.47344,1.57078 59.948911,59.948911 0 0 0 9.05518,0 1.593925,1.593925 0 0 0 1.47343,-1.57078 150.06047,150.06047 0 0 0 0,-3.50245 1.593925,1.593925 0 0 0 -1.47343,-1.570781"
       style="display:inline;fill:none;fill-rule:evenodd;stroke:#ff0000;stroke-width:0.00352778;stroke-miterlimit:4;stroke-dasharray:none;stroke-opacity:1"
       inkscape:connector-curvature="0" />
    <path
       id="Sketch036_w0014-9-4-6-0-8-6"
       d="m 96.809664,84.521009 a 59.948911,59.948911 0 0 0 -9.05518,0 1.593925,1.593925 0 0 0 -1.47344,1.57078 150.06047,150.06047 0 0 0 0,3.50245 1.593925,1.593925 0 0 0 1.47344,1.57078 59.948911,59.948911 0 0 0 9.05518,0 1.593925,1.593925 0 0 0 1.47343,-1.57078 150.06047,150.06047 0 0 0 0,-3.50245 1.593925,1.593925 0 0 0 -1.47343,-1.57078"
       style="display:inline;fill:none;fill-rule:evenodd;stroke:#ff0000;stroke-width:0.00352778;stroke-miterlimit:4;stroke-dasharray:none;stroke-opacity:1"
       inkscape:connector-curvature="0" />
    <path
       id="Sketch036_w0014-9-4-6-7-6"
       d="m 96.809664,45.521009 a 59.948911,59.948911 0 0 0 -9.05518,0 1.593925,1.593925 0 0 0 -1.47344,1.57078 150.06047,150.06047 0 0 0 0,3.502449 1.593925,1.593925 0 0 0 1.47344,1.570781 59.948911,59.948911 0 0 0 9.05518,0 1.593925,1.593925 0 0 0 1.47343,-1.570781 150.06047,150.06047 0 0 0 0,-3.502449 1.593925,1.593925 0 0 0 -1.47343,-1.57078"
       style="display:inline;fill:none;fill-rule:evenodd;stroke:#ff0000;stroke-width:0.00352778;stroke-miterlimit:4;stroke-dasharray:none;stroke-opacity:1"
       inkscape:connector-curvature="0" />
    <path
       id="Sketch036_w0014-9-4-6-7-9"
       d="m 82.103064,45.520999 a 59.948911,59.948911 0 0 0 -9.05518,0 1.593925,1.593925 0 0 0 -1.47344,1.57078 150.06047,150.06047 0 0 0 0,3.502449 1.593925,1.593925 0 0 0 1.47344,1.570791 59.948911,59.948911 0 0 0 9.05518,0 1.593925,1.593925 0 0 0 1.47343,-1.570791 150.06047,150.06047 0 0 0 0,-3.502449 1.593925,1.593925 0 0 0 -1.47343,-1.57078"
       style="display:inline;fill:none;fill-rule:evenodd;stroke:#ff0000;stroke-width:0.00352778;stroke-miterlimit:4;stroke-dasharray:none;stroke-opacity:1"
       inkscape:connector-curvature="0" />
    <path
       id="Sketch036_w0014-9-4-6-7-7"
       d="m 82.103064,32.521009 a 59.948911,59.948911 0 0 0 -9.05518,0 1.593925,1.593925 0 0 0 -1.47344,1.57078 150.06047,150.06047 0 0 0 0,3.50245 1.593925,1.593925 0 0 0 1.47344,1.57078 59.948911,59.948911 0 0 0 9.05518,0 1.593925,1.593925 0 0 0 1.47343,-1.57078 150.06047,150.06047 0 0 0 0,-3.50245 1.593925,1.593925 0 0 0 -1.47343,-1.57078"
       style="display:inline;fill:none;fill-rule:evenodd;stroke:#ff0000;stroke-width:0.00352778;stroke-miterlimit:4;stroke-dasharray:none;stroke-opacity:1"
       inkscape:connector-curvature="0" />
    <path
       id="Sketch036_w0014-9-4-6-7-0"
       d="m 82.103064,19.521283 a 59.948911,59.948911 0 0 0 -9.05518,0 1.593925,1.593925 0 0 0 -1.47344,1.57078 150.06047,150.06047 0 0 0 0,3.50245 1.593925,1.593925 0 0 0 1.47344,1.57078 59.948911,59.948911 0 0 0 9.05518,0 1.593925,1.593925 0 0 0 1.47344,-1.57078 150.06047,150.06047 0 0 0 0,-3.50245 1.593925,1.593925 0 0 0 -1.47344,-1.57078"
       style="display:inline;fill:none;fill-rule:evenodd;stroke:#ff0000;stroke-width:0.00352778;stroke-miterlimit:4;stroke-dasharray:none;stroke-opacity:1"
       inkscape:connector-curvature="0" />
    <path
       id="Sketch036_w0014-9-4-6-7-3"
       d="m 96.809664,32.521009 a 59.948911,59.948911 0 0 0 -9.05518,0 1.593925,1.593925 0 0 0 -1.47344,1.57078 150.06047,150.06047 0 0 0 0,3.50245 1.593925,1.593925 0 0 0 1.47344,1.57078 59.948911,59.948911 0 0 0 9.05518,0 1.593925,1.593925 0 0 0 1.47343,-1.57078 150.06047,150.06047 0 0 0 0,-3.50245 1.593925,1.593925 0 0 0 -1.47343,-1.57078"
       style="display:inline;fill:none;fill-rule:evenodd;stroke:#ff0000;stroke-width:0.00352778;stroke-miterlimit:4;stroke-dasharray:none;stroke-opacity:1"
       inkscape:connector-curvature="0" />
    <path
       id="Sketch036_w0014-9-4-6-7-2-5"
       d="m 96.809664,19.521273 a 59.948911,59.948911 0 0 0 -9.05518,0 1.593925,1.593925 0 0 0 -1.47344,1.57078 150.06047,150.06047 0 0 0 0,3.50245 1.593925,1.593925 0 0 0 1.47344,1.57079 59.948911,59.948911 0 0 0 9.05518,0 1.593925,1.593925 0 0 0 1.47343,-1.57079 150.06047,150.06047 0 0 0 0,-3.50245 1.593925,1.593925 0 0 0 -1.47343,-1.57078"
       style="display:inline;fill:none;fill-rule:evenodd;stroke:#ff0000;stroke-width:0.00352778;stroke-miterlimit:4;stroke-dasharray:none;stroke-opacity:1"
       inkscape:connector-curvature="0" />
    <path
       id="Sketch036_w0014-9-3-4"
       d="m 82.102657,136.52099 a 59.948911,59.948911 0 0 0 -9.05518,0 1.593925,1.593925 0 0 0 -1.47344,1.57078 150.06047,150.06047 0 0 0 0,3.50245 1.593925,1.593925 0 0 0 1.47344,1.57078 59.948911,59.948911 0 0 0 9.05518,0 1.593925,1.593925 0 0 0 1.47343,-1.57078 150.06047,150.06047 0 0 0 0,-3.50245 1.593925,1.593925 0 0 0 -1.47343,-1.57078"
       style="display:inline;fill:none;fill-rule:evenodd;stroke:#ff0000;stroke-width:0.00352778;stroke-miterlimit:4;stroke-dasharray:none;stroke-opacity:1"
       inkscape:connector-curvature="0" />
    <path
       id="Sketch036_w0014-9-4-4-9"
       d="m 82.102657,123.52099 a 59.948911,59.948911 0 0 0 -9.05518,0 1.593925,1.593925 0 0 0 -1.47344,1.57078 150.06047,150.06047 0 0 0 0,3.50245 1.593925,1.593925 0 0 0 1.47344,1.57078 59.948911,59.948911 0 0 0 9.05518,0 1.593925,1.593925 0 0 0 1.47343,-1.57078 150.06047,150.06047 0 0 0 0,-3.50245 1.593925,1.593925 0 0 0 -1.47343,-1.57078"
       style="display:inline;fill:none;fill-rule:evenodd;stroke:#ff0000;stroke-width:0.00352778;stroke-miterlimit:4;stroke-dasharray:none;stroke-opacity:1"
       inkscape:connector-curvature="0" />
    <path
       id="Sketch036_w0014-9-4-6-7-06"
       d="m 82.102657,110.52099 a 59.948911,59.948911 0 0 0 -9.05518,0 1.593925,1.593925 0 0 0 -1.47344,1.57078 150.06047,150.06047 0 0 0 0,3.50245 1.593925,1.593925 0 0 0 1.47344,1.57078 59.948911,59.948911 0 0 0 9.05518,0 1.593925,1.593925 0 0 0 1.47343,-1.57078 150.06047,150.06047 0 0 0 0,-3.50245 1.593925,1.593925 0 0 0 -1.47343,-1.57078"
       style="display:inline;fill:none;fill-rule:evenodd;stroke:#ff0000;stroke-width:0.00352778;stroke-miterlimit:4;stroke-dasharray:none;stroke-opacity:1"
       inkscape:connector-curvature="0" />
    <path
       id="Sketch036_w0014-9-4-6-0-8-6-6"
       d="m 96.809657,136.52099 a 59.948911,59.948911 0 0 0 -9.05518,0 1.593925,1.593925 0 0 0 -1.47344,1.57078 150.06047,150.06047 0 0 0 0,3.50245 1.593925,1.593925 0 0 0 1.47344,1.57078 59.948911,59.948911 0 0 0 9.05518,0 1.593925,1.593925 0 0 0 1.47343,-1.57078 150.06047,150.06047 0 0 0 0,-3.50245 1.593925,1.593925 0 0 0 -1.47343,-1.57078"
       style="display:inline;fill:none;fill-rule:evenodd;stroke:#ff0000;stroke-width:0.00352778;stroke-miterlimit:4;stroke-dasharray:none;stroke-opacity:1"
       inkscape:connector-curvature="0" />
    <path
       id="Sketch036_w0014-9-4-6-7-7-7"
       d="m 82.102657,97.521005 a 59.948911,59.948911 0 0 0 -9.05518,0 1.593925,1.593925 0 0 0 -1.47344,1.570771 150.06047,150.06047 0 0 0 0,3.502444 1.593925,1.593925 0 0 0 1.47344,1.57078 59.948911,59.948911 0 0 0 9.05518,0 1.593925,1.593925 0 0 0 1.47343,-1.57078 150.06047,150.06047 0 0 0 0,-3.502444 1.593925,1.593925 0 0 0 -1.47343,-1.570771"
       style="display:inline;fill:none;fill-rule:evenodd;stroke:#ff0000;stroke-width:0.00352778;stroke-miterlimit:4;stroke-dasharray:none;stroke-opacity:1"
       inkscape:connector-curvature="0" />
    <path
       id="Sketch036_w0014-9-4-6-7-3-7"
       d="m 96.809657,97.521005 a 59.948911,59.948911 0 0 0 -9.05518,0 1.593925,1.593925 0 0 0 -1.47344,1.570771 150.06047,150.06047 0 0 0 0,3.502444 1.593925,1.593925 0 0 0 1.47344,1.57078 59.948911,59.948911 0 0 0 9.05518,0 1.593925,1.593925 0 0 0 1.47343,-1.57078 150.06047,150.06047 0 0 0 0,-3.502444 1.593925,1.593925 0 0 0 -1.47343,-1.570771"
       style="display:inline;fill:none;fill-rule:evenodd;stroke:#ff0000;stroke-width:0.00352778;stroke-miterlimit:4;stroke-dasharray:none;stroke-opacity:1"
       inkscape:connector-curvature="0" />
    <rect
       style="opacity:1;fill:none;fill-opacity:1;stroke:#ff0000;stroke-width:0.00354849;stroke-linecap:butt;stroke-linejoin:round;stroke-miterlimit:4;stroke-dasharray:none;stroke-opacity:1"
       id="rect1590"
       width="35.755032"
       height="192.54045"
       x="67.20713"
       y="10.781998" />
    <circle
       id="circle7-2"
       style="display:inline;fill:none;stroke:#ff0000;stroke-width:0.00352778;stroke-miterlimit:4;stroke-dasharray:none;stroke-opacity:1"
       cy="-171.3887"
       cx="85.084473"
       transform="scale(1,-1)"
       r="3.5482118" />
    <ellipse
       id="circle7-2-7"
       style="display:inline;fill:none;stroke:#ff0000;stroke-width:0.00582168;stroke-miterlimit:4;stroke-dasharray:none;stroke-opacity:1"
       cy="-187.54517"
       cx="85.084"
       transform="scale(1,-1)"
       rx="8.2470884"
       ry="8.2470894" />
    <path
       id="Sketch036_w0014-9-4-6-7-3-7-2"
       d="m 96.809604,110.52099 a 59.948911,59.948911 0 0 0 -9.055181,0 1.593925,1.593925 0 0 0 -1.47344,1.57078 150.06047,150.06047 0 0 0 0,3.50245 1.593925,1.593925 0 0 0 1.47344,1.57078 59.948911,59.948911 0 0 0 9.055181,0 1.593925,1.593925 0 0 0 1.47343,-1.57078 150.06047,150.06047 0 0 0 0,-3.50245 1.593925,1.593925 0 0 0 -1.47343,-1.57078"
       style="display:inline;fill:none;fill-rule:evenodd;stroke:#ff0000;stroke-width:0.00352778;stroke-miterlimit:4;stroke-dasharray:none;stroke-opacity:1"
       inkscape:connector-curvature="0" />
    <path
       id="Sketch036_w0014-9-3-4-1"
       d="m 82.102603,149.52099 a 59.948911,59.948911 0 0 0 -9.05518,0 1.593925,1.593925 0 0 0 -1.47344,1.57078 150.06047,150.06047 0 0 0 0,3.50245 1.593925,1.593925 0 0 0 1.47344,1.57078 59.948911,59.948911 0 0 0 9.05518,0 1.593925,1.593925 0 0 0 1.47343,-1.57078 150.06047,150.06047 0 0 0 0,-3.50245 1.593925,1.593925 0 0 0 -1.47343,-1.57078"
       style="display:inline;fill:none;fill-rule:evenodd;stroke:#ff0000;stroke-width:0.00352778;stroke-miterlimit:4;stroke-dasharray:none;stroke-opacity:1"
       inkscape:connector-curvature="0" />
    <path
       id="Sketch036_w0014-9-4-6-0-8-6-6-3"
       d="m 96.809603,149.52099 a 59.948911,59.948911 0 0 0 -9.05518,0 1.593925,1.593925 0 0 0 -1.47344,1.57078 150.06047,150.06047 0 0 0 0,3.50245 1.593925,1.593925 0 0 0 1.47344,1.57078 59.948911,59.948911 0 0 0 9.05518,0 1.593925,1.593925 0 0 0 1.47343,-1.57078 150.06047,150.06047 0 0 0 0,-3.50245 1.593925,1.593925 0 0 0 -1.47343,-1.57078"
       style="display:inline;fill:none;fill-rule:evenodd;stroke:#ff0000;stroke-width:0.00352778;stroke-miterlimit:4;stroke-dasharray:none;stroke-opacity:1"
       inkscape:connector-curvature="0" />
    <circle
       id="circle7-2-1"
       style="display:inline;fill:none;stroke:#ff0000;stroke-width:0.00149062;stroke-miterlimit:4;stroke-dasharray:none;stroke-opacity:1"
       cy="-16.337999"
       cx="77.574997"
       transform="scale(1,-1)"
       r="1.4992547" />
    <circle
       id="circle7-2-1-3"
       style="display:inline;fill:none;stroke:#ff0000;stroke-width:0.00149062;stroke-miterlimit:4;stroke-dasharray:none;stroke-opacity:1"
       cy="-29.337999"
       cx="77.574997"
       transform="scale(1,-1)"
       r="1.4992547" />
    <circle
       id="circle7-2-1-3-5"
       style="display:inline;fill:none;stroke:#ff0000;stroke-width:0.00149062;stroke-miterlimit:4;stroke-dasharray:none;stroke-opacity:1"
       cy="-42.537998"
       cx="77.574997"
       transform="scale(1,-1)"
       r="1.4992547" />
    <circle
       id="circle7-2-1-3-1"
       style="display:inline;fill:none;stroke:#ff0000;stroke-width:0.00149062;stroke-miterlimit:4;stroke-dasharray:none;stroke-opacity:1"
       cy="-55.338001"
       cx="77.574997"
       transform="scale(1,-1)"
       r="1.4992547" />
    <circle
       id="circle7-2-1-3-4"
       style="display:inline;fill:none;stroke:#ff0000;stroke-width:0.00149062;stroke-miterlimit:4;stroke-dasharray:none;stroke-opacity:1"
       cy="-68.337997"
       cx="77.574997"
       transform="scale(1,-1)"
       r="1.4992547"
       inkscape:transform-center-x="-1.6036172"
       inkscape:transform-center-y="-12.160764" />
    <circle
       id="circle7-2-1-3-3"
       style="display:inline;fill:none;stroke:#ff0000;stroke-width:0.00149062;stroke-miterlimit:4;stroke-dasharray:none;stroke-opacity:1"
       cy="-81.337997"
       cx="77.574997"
       transform="scale(1,-1)"
       r="1.4992547" />
    <circle
       id="circle7-2-1-3-0"
       style="display:inline;fill:none;stroke:#ff0000;stroke-width:0.00149062;stroke-miterlimit:4;stroke-dasharray:none;stroke-opacity:1"
       cy="-94.337997"
       cx="77.574997"
       transform="scale(1,-1)"
       r="1.4992547" />
    <circle
       id="circle7-2-1-3-8"
       style="display:inline;fill:none;stroke:#ff0000;stroke-width:0.00149062;stroke-miterlimit:4;stroke-dasharray:none;stroke-opacity:1"
       cy="-107.338"
       cx="77.574997"
       transform="scale(1,-1)"
       r="1.4992547"
       inkscape:transform-center-x="-16.036172"
       inkscape:transform-center-y="49.444863" />
    <circle
       id="circle7-2-1-3-81"
       style="display:inline;fill:none;stroke:#ff0000;stroke-width:0.00149062;stroke-miterlimit:4;stroke-dasharray:none;stroke-opacity:1"
       cy="-120.338"
       cx="77.574997"
       transform="scale(1,-1)"
       r="1.4992547" />
    <circle
       id="circle7-2-1-3-13"
       style="display:inline;fill:none;stroke:#ff0000;stroke-width:0.00149062;stroke-miterlimit:4;stroke-dasharray:none;stroke-opacity:1"
       cy="-133.338"
       cx="77.574997"
       transform="scale(1,-1)"
       r="1.4992547" />
    <circle
       id="circle7-2-1-3-7"
       style="display:inline;fill:none;stroke:#ff0000;stroke-width:0.00149062;stroke-miterlimit:4;stroke-dasharray:none;stroke-opacity:1"
       cy="-146.338"
       cx="77.574997"
       transform="scale(1,-1)"
       r="1.4992547" />
    <circle
       id="circle7-2-1-0"
       style="display:inline;fill:none;stroke:#ff0000;stroke-width:0.00149062;stroke-miterlimit:4;stroke-dasharray:none;stroke-opacity:1"
       cy="-16.337999"
       cx="92.281998"
       transform="scale(1,-1)"
       r="1.4992547" />
    <circle
       id="circle7-2-1-0-7"
       style="display:inline;fill:none;stroke:#ff0000;stroke-width:0.00149062;stroke-miterlimit:4;stroke-dasharray:none;stroke-opacity:1"
       cy="-29.337999"
       cx="92.281998"
       transform="scale(1,-1)"
       r="1.4992547" />
    <circle
       id="circle7-2-1-0-70"
       style="display:inline;fill:none;stroke:#ff0000;stroke-width:0.00149062;stroke-miterlimit:4;stroke-dasharray:none;stroke-opacity:1"
       cy="-42.338001"
       cx="92.281998"
       transform="scale(1,-1)"
       r="1.4992547" />
    <circle
       id="circle7-2-1-0-1"
       style="display:inline;fill:none;stroke:#ff0000;stroke-width:0.00149062;stroke-miterlimit:4;stroke-dasharray:none;stroke-opacity:1"
       cy="-55.338001"
       cx="92.281998"
       transform="scale(1,-1)"
       r="1.4992547" />
    <circle
       id="circle7-2-1-0-0"
       style="display:inline;fill:none;stroke:#ff0000;stroke-width:0.00149062;stroke-miterlimit:4;stroke-dasharray:none;stroke-opacity:1"
       cy="-68.337997"
       cx="92.281998"
       transform="scale(1,-1)"
       r="1.4992547" />
    <circle
       id="circle7-2-1-0-4"
       style="display:inline;fill:none;stroke:#ff0000;stroke-width:0.00149062;stroke-miterlimit:4;stroke-dasharray:none;stroke-opacity:1"
       cy="-81.337997"
       cx="92.281998"
       transform="scale(1,-1)"
       r="1.4992547" />
    <circle
       id="circle7-2-1-0-3"
       style="display:inline;fill:none;stroke:#ff0000;stroke-width:0.00149062;stroke-miterlimit:4;stroke-dasharray:none;stroke-opacity:1"
       cy="-94.337997"
       cx="92.281998"
       transform="scale(1,-1)"
       r="1.4992547" />
    <circle
       id="circle7-2-1-0-16"
       style="display:inline;fill:none;stroke:#ff0000;stroke-width:0.00149062;stroke-miterlimit:4;stroke-dasharray:none;stroke-opacity:1"
       cy="-107.338"
       cx="92.281998"
       transform="scale(1,-1)"
       r="1.4992547" />
    <circle
       id="circle7-2-1-0-2"
       style="display:inline;fill:none;stroke:#ff0000;stroke-width:0.00149062;stroke-miterlimit:4;stroke-dasharray:none;stroke-opacity:1"
       cy="-133.338"
       cx="92.281998"
       transform="scale(1,-1)"
       r="1.4992547" />
    <circle
       id="circle7-2-1-0-06"
       style="display:inline;fill:none;stroke:#ff0000;stroke-width:0.00149062;stroke-miterlimit:4;stroke-dasharray:none;stroke-opacity:1"
       cy="-146.338"
       cx="92.281998"
       transform="scale(1,-1)"
       r="1.4992547" />
    <circle
       id="circle7-2-1-6"
       style="display:inline;fill:none;stroke:#ff0000;stroke-width:0.00149062;stroke-miterlimit:4;stroke-dasharray:none;stroke-opacity:1"
       cy="-13.336413"
       cx="69.763306"
       transform="scale(1,-1)"
       r="1.4992547" />
    <circle
       id="circle7-2-1-5"
       style="display:inline;fill:none;stroke:#ff0000;stroke-width:0.00149062;stroke-miterlimit:4;stroke-dasharray:none;stroke-opacity:1"
       cy="-13.340677"
       cx="100.39874"
       transform="scale(1,-1)"
       r="1.4992547" />
    <circle
       id="circle7-2-1-34"
       style="display:inline;fill:none;stroke:#ff0000;stroke-width:0.00149062;stroke-miterlimit:4;stroke-dasharray:none;stroke-opacity:1"
       cy="-200.76663"
       cx="69.766464"
       transform="scale(1,-1)"
       r="1.4992547" />
    <circle
       id="circle7-2-1-53"
       style="display:inline;fill:none;stroke:#ff0000;stroke-width:0.00149062;stroke-miterlimit:4;stroke-dasharray:none;stroke-opacity:1"
       cy="-200.7661"
       cx="100.40109"
       transform="scale(1,-1)"
       r="1.4992547" />
  </g>
  <g
     inkscape:groupmode="layer"
     id="layer2"
     inkscape:label="Engrave"
     style="display:inline"
     transform="translate(-65.205356,-8.7802234)">
    <rect
       style="opacity:1;fill:none;fill-opacity:1;stroke:#000000;stroke-width:0.35299999;stroke-linecap:butt;stroke-linejoin:round;stroke-miterlimit:4;stroke-dasharray:none;stroke-opacity:1"
       id="rect1588"
       width="29.99625"
       height="49.753357"
       x="70.086777"
       y="16.332764" />
    <rect
       style="opacity:1;fill:none;fill-opacity:1;stroke:#000000;stroke-width:0.35299999;stroke-linecap:butt;stroke-linejoin:round;stroke-miterlimit:4;stroke-dasharray:none;stroke-opacity:1"
       id="rect1588-8"
       width="29.996777"
       height="36.7579"
       x="70.086609"
       y="94.328491" />
    <path
       style="opacity:1;fill:none;fill-opacity:1;stroke:#000000;stroke-width:0.35299999;stroke-linecap:butt;stroke-linejoin:round;stroke-miterlimit:4;stroke-dasharray:none;stroke-opacity:1"
       d="m 93.785278,146.3712 h 6.298212 v 13.65573 H 70.0865 V 146.3712 h 5.981276"
       id="rect1588-8-5"
       inkscape:connector-curvature="0"
       sodipodi:nodetypes="cccccc" />
    <text
       xml:space="preserve"
       style="font-style:normal;font-variant:normal;font-weight:normal;font-stretch:normal;font-size:4.23333311px;line-height:1.25;font-family:'Franklin Gothic Medium';-inkscape-font-specification:'Franklin Gothic Medium, ';letter-spacing:0px;word-spacing:0px;display:inline;fill:#000000;fill-opacity:1;stroke:#000000;stroke-width:0;stroke-miterlimit:4;stroke-dasharray:none;stroke-opacity:1"
       x="74.234108"
       y="200.01857"
       id="text7709-5-5-5"><tspan
         sodipodi:role="line"
         id="tspan7707-2-9-6"
         x="74.234108"
         y="200.01857"
         style="font-style:normal;font-variant:normal;font-weight:500;font-stretch:normal;font-size:2.82222223px;font-family:Dubai;-inkscape-font-specification:'Dubai, Medium';font-variant-ligatures:normal;font-variant-caps:normal;font-variant-numeric:normal;font-feature-settings:normal;text-align:start;writing-mode:lr-tb;text-anchor:start;fill:#000000;fill-opacity:1;stroke:#000000;stroke-width:0;stroke-miterlimit:4;stroke-dasharray:none;stroke-opacity:1">DISPLAY BACKUP</tspan></text>
    <text
       xml:space="preserve"
       style="font-style:normal;font-variant:normal;font-weight:normal;font-stretch:normal;font-size:4.23333311px;line-height:1.25;font-family:'Franklin Gothic Medium';-inkscape-font-specification:'Franklin Gothic Medium, ';letter-spacing:0px;word-spacing:0px;display:inline;fill:#000000;fill-opacity:1;stroke:#000000;stroke-width:0;stroke-miterlimit:4;stroke-dasharray:none;stroke-opacity:1"
       x="81.339645"
       y="147.32632"
       id="text7709-5-5-5-9"><tspan
         sodipodi:role="line"
         id="tspan7707-2-9-6-1"
         x="81.339645"
         y="147.32632"
         style="font-style:normal;font-variant:normal;font-weight:500;font-stretch:normal;font-size:2.82222223px;font-family:Dubai;-inkscape-font-specification:'Dubai, Medium';font-variant-ligatures:normal;font-variant-caps:normal;font-variant-numeric:normal;font-feature-settings:normal;text-align:start;writing-mode:lr-tb;text-anchor:start;fill:#000000;fill-opacity:1;stroke:#000000;stroke-width:0;stroke-miterlimit:4;stroke-dasharray:none;stroke-opacity:1">CREW</tspan></text>
    <text
       xml:space="preserve"
       style="font-style:normal;font-variant:normal;font-weight:normal;font-stretch:normal;font-size:4.23333311px;line-height:1.25;font-family:'Franklin Gothic Medium';-inkscape-font-specification:'Franklin Gothic Medium, ';letter-spacing:0px;word-spacing:0px;display:inline;fill:#000000;fill-opacity:1;stroke:#000000;stroke-width:0;stroke-miterlimit:4;stroke-dasharray:none;stroke-opacity:1"
       x="75.918045"
       y="159.06787"
       id="text7709-5-5-5-9-3"><tspan
         sodipodi:role="line"
         id="tspan7707-2-9-6-1-6"
         x="75.918045"
         y="159.06787"
         style="font-style:normal;font-variant:normal;font-weight:500;font-stretch:normal;font-size:2.82222223px;font-family:Dubai;-inkscape-font-specification:'Dubai, Medium';font-variant-ligatures:normal;font-variant-caps:normal;font-variant-numeric:normal;font-feature-settings:normal;text-align:start;writing-mode:lr-tb;text-anchor:start;fill:#000000;fill-opacity:1;stroke:#000000;stroke-width:0;stroke-miterlimit:4;stroke-dasharray:none;stroke-opacity:1">ICS ISOLATION</tspan></text>
    <text
       xml:space="preserve"
       style="font-style:normal;font-variant:normal;font-weight:normal;font-stretch:normal;font-size:4.23333311px;line-height:1.25;font-family:'Franklin Gothic Medium';-inkscape-font-specification:'Franklin Gothic Medium, ';letter-spacing:0px;word-spacing:0px;display:inline;fill:#000000;fill-opacity:1;stroke:#000000;stroke-width:0;stroke-miterlimit:4;stroke-dasharray:none;stroke-opacity:1"
       x="72.691833"
       y="177.43416"
       id="text7709-5-5-5-9-4"><tspan
         sodipodi:role="line"
         id="tspan7707-2-9-6-1-1"
         x="72.691833"
         y="177.43416"
         style="font-style:normal;font-variant:normal;font-weight:500;font-stretch:normal;font-size:2.82222223px;font-family:Dubai;-inkscape-font-specification:'Dubai, Medium';font-variant-ligatures:normal;font-variant-caps:normal;font-variant-numeric:normal;font-feature-settings:normal;text-align:start;writing-mode:lr-tb;text-anchor:start;fill:#000000;fill-opacity:1;stroke:#000000;stroke-width:0;stroke-miterlimit:4;stroke-dasharray:none;stroke-opacity:1">VOL</tspan></text>
    <text
       xml:space="preserve"
       style="font-style:normal;font-variant:normal;font-weight:normal;font-stretch:normal;font-size:4.23333311px;line-height:1.25;font-family:'Franklin Gothic Medium';-inkscape-font-specification:'Franklin Gothic Medium, ';letter-spacing:0px;word-spacing:0px;display:inline;fill:#000000;fill-opacity:1;stroke:#000000;stroke-width:0;stroke-miterlimit:4;stroke-dasharray:none;stroke-opacity:1"
       x="93.952278"
       y="177.0334"
       id="text7709-5-5-5-9-5"><tspan
         sodipodi:role="line"
         x="93.952278"
         y="177.0334"
         style="font-style:normal;font-variant:normal;font-weight:500;font-stretch:normal;font-size:2.82222223px;font-family:Dubai;-inkscape-font-specification:'Dubai, Medium';font-variant-ligatures:normal;font-variant-caps:normal;font-variant-numeric:normal;font-feature-settings:normal;text-align:start;writing-mode:lr-tb;text-anchor:start;fill:#000000;fill-opacity:1;stroke:#000000;stroke-width:0;stroke-miterlimit:4;stroke-dasharray:none;stroke-opacity:1"
         id="tspan911">SQ</tspan></text>
    <text
       xml:space="preserve"
       style="font-style:normal;font-variant:normal;font-weight:normal;font-stretch:normal;font-size:4.23333311px;line-height:1.25;font-family:'Franklin Gothic Medium';-inkscape-font-specification:'Franklin Gothic Medium, ';letter-spacing:0px;word-spacing:0px;display:inline;fill:#000000;fill-opacity:1;stroke:#000000;stroke-width:0;stroke-miterlimit:4;stroke-dasharray:none;stroke-opacity:1"
       x="74.793945"
       y="163.34547"
       id="text7709-5-5-5-9-4-4"><tspan
         sodipodi:role="line"
         id="tspan7707-2-9-6-1-1-5"
         x="74.793945"
         y="163.34547"
         style="font-style:normal;font-variant:normal;font-weight:500;font-stretch:normal;font-size:2.82222223px;font-family:Dubai;-inkscape-font-specification:'Dubai, Medium';font-variant-ligatures:normal;font-variant-caps:normal;font-variant-numeric:normal;font-feature-settings:normal;text-align:start;writing-mode:lr-tb;text-anchor:start;fill:#000000;fill-opacity:1;stroke:#000000;stroke-width:0;stroke-miterlimit:4;stroke-dasharray:none;stroke-opacity:1">PILOT</tspan></text>
    <text
       xml:space="preserve"
       style="font-style:normal;font-variant:normal;font-weight:normal;font-stretch:normal;font-size:4.23333311px;line-height:1.25;font-family:'Franklin Gothic Medium';-inkscape-font-specification:'Franklin Gothic Medium, ';letter-spacing:0px;word-spacing:0px;display:inline;fill:#000000;fill-opacity:1;stroke:#000000;stroke-width:0;stroke-miterlimit:4;stroke-dasharray:none;stroke-opacity:1"
       x="87.078163"
       y="163.34547"
       id="text7709-5-5-5-9-4-0"><tspan
         sodipodi:role="line"
         id="tspan7707-2-9-6-1-1-4"
         x="87.078163"
         y="163.34547"
         style="font-style:normal;font-variant:normal;font-weight:500;font-stretch:normal;font-size:2.82222223px;font-family:Dubai;-inkscape-font-specification:'Dubai, Medium';font-variant-ligatures:normal;font-variant-caps:normal;font-variant-numeric:normal;font-feature-settings:normal;text-align:start;writing-mode:lr-tb;text-anchor:start;fill:#000000;fill-opacity:1;stroke:#000000;stroke-width:0;stroke-miterlimit:4;stroke-dasharray:none;stroke-opacity:1">PASS</tspan></text>
    <path
       style="display:inline;opacity:1;fill:none;fill-opacity:1;stroke:#000000;stroke-width:0.35299999;stroke-linecap:butt;stroke-linejoin:round;stroke-miterlimit:4;stroke-dasharray:none;stroke-opacity:1"
       d="m 82.889978,161.49659 c 0.34999,-0.41077 0.87108,-0.67128 1.45302,-0.67128 1.05381,0 1.9081,0.85429 1.9081,1.9081 0,1.05381 -0.85429,1.9081 -1.9081,1.9081 -0.66065,0 -1.24287,-0.33575 -1.58536,-0.84592"
       id="path1933"
       inkscape:connector-curvature="0"
       sodipodi:nodetypes="ccscc" />
    <path
       style="display:inline;fill:none;fill-opacity:1;stroke:#000000;stroke-width:0.35277778;stroke-linecap:butt;stroke-linejoin:miter;stroke-miterlimit:4;stroke-dasharray:none;stroke-opacity:1"
       d="m 86.400339,162.63092 h 0.620129"
       id="path1946"
       inkscape:connector-curvature="0" />
    <path
       style="display:inline;fill:none;fill-opacity:1;stroke:#000000;stroke-width:0.29994249;stroke-linecap:butt;stroke-linejoin:miter;stroke-miterlimit:4;stroke-dasharray:none;stroke-opacity:1"
       d="m 82.123878,162.63092 h 1.263724"
       id="path1946-4"
       inkscape:connector-curvature="0" />
    <circle
       style="opacity:1;fill:none;fill-opacity:1;stroke:#000000;stroke-width:0.4036189;stroke-linecap:butt;stroke-linejoin:round;stroke-miterlimit:4;stroke-dasharray:none;stroke-opacity:1"
       id="path953"
       cx="84.361259"
       cy="162.73749"
       r="1.0981905" />
  </g>
</svg>
